<svg width="1366" height="2048" viewBox="0 0 1366 2048" fill="none" xmlns="http://www.w3.org/2000/svg">
<path d="M414.667 522.533C403.733 523.6 397.2 527.467 393.467 535.2C390.667 540.8 390.667 542.4 390.667 639.467C390.8 743.467 390.8 744.267 396.933 750.933C402.133 756.667 404.667 757.067 442.267 758C481.333 758.8 484.4 758.4 491.867 751.6C498.4 745.6 498.667 743.2 498.667 695.333V650.667H510.533H522.4L530.933 658.267C535.6 662.533 545.733 671.467 553.333 678.133C561.067 684.8 582.667 703.6 601.467 720.133C620.267 736.533 644.4 757.467 655.067 766.667L674.533 783.333L674.667 929.6V1075.73L663.733 1085.6C657.733 1090.93 642.933 1104.27 630.933 1115.33C618.8 1126.27 605.6 1138.27 601.467 1142C597.333 1145.6 583.867 1158 571.333 1169.33C558.933 1180.8 535.2 1202.4 518.667 1217.47L488.533 1244.8L494.933 1250.53L501.333 1256.13L526.267 1235.2C540.133 1223.73 574.4 1195.07 602.533 1171.47C630.667 1147.87 660.4 1123.2 668.533 1116.53L683.467 1104.27L713.467 1128.93C729.867 1142.53 746.4 1156.13 750.133 1159.2C753.867 1162.13 765.867 1172.13 776.667 1181.33C787.467 1190.53 798.533 1199.73 801.333 1202C804 1204.13 808.8 1208.27 812.133 1210.93C815.333 1213.6 828.8 1224.8 841.867 1235.73L865.867 1255.73L868.533 1252.4C869.867 1250.53 872.8 1248 874.8 1246.8L878.533 1244.53L865.6 1232.53C858.533 1225.87 842.8 1211.6 830.667 1200.67C808.267 1180.4 786.533 1160.67 740 1118C725.6 1104.8 709.2 1090.13 703.733 1085.33L693.467 1076.67V930L693.333 783.333L719.6 760C734.133 747.2 761.333 723.2 780 706.8C798.667 690.4 817.067 674.133 820.8 670.8C824.533 667.467 831.467 661.2 836.4 656.933L845.2 649.333H855.867H866.667V694.933C866.667 746.267 866.4 744.933 876.8 752.8L881.733 756.667L920.933 757.067C959.067 757.467 960.267 757.333 964.8 754.533C967.333 753.067 970.933 749.6 972.667 746.933L976 742V640V538L972.933 532.667C971.067 529.2 968 526.267 964 524.267C958.267 521.467 956.8 521.333 920.667 521.333C884.533 521.333 883.2 521.467 878 524.4C874.533 526.267 871.6 529.333 869.733 533.333C866.8 539.067 866.667 540.267 866.667 582.267V625.333H778.933C730.667 625.333 647.867 625.733 594.933 626.267L498.667 627.067V583.467C498.667 542.667 498.533 539.6 496 534.667C492.933 528.667 488 524.933 480.667 522.8C475.067 521.333 430.533 521.067 414.667 522.533ZM802 659.467C781.333 679.2 722.533 733.467 710 744.533C703.467 750.4 694.933 758.133 691.067 761.733L684.267 768.4L681.067 765.867C679.333 764.4 669.6 755.867 659.333 746.667C613.733 705.6 594 687.6 575.467 669.733L555.6 650.667H651.467C739.467 650.667 810.533 649.733 811.867 648.533C812.133 648.267 812.8 648 813.2 648C813.6 648.133 808.667 653.2 802 659.467Z" fill="#33DD00"/>
<path d="M888 1253.47C883.333 1255.33 878.8 1259.87 875.867 1265.6C873.467 1270.13 873.333 1273.87 873.333 1314V1357.33H684.133H494.8L494.4 1312.93L494 1268.67L490.667 1263.6C484.267 1254 481.2 1253.33 440.8 1253.33C400.267 1253.33 397.867 1253.87 391.067 1264.27L387.333 1269.87L386.933 1369.2C386.667 1444.8 386.933 1469.87 388.133 1473.73C390.133 1480 398.4 1487.6 404.267 1488.67C406.667 1489.07 424.267 1489.33 443.333 1489.07C476.8 1488.67 478.133 1488.53 482.933 1485.6C485.6 1483.87 489.2 1480.27 490.933 1477.6C494 1472.67 494 1472.4 494 1427.07C494 1382 494 1381.33 496.667 1382.13C498.133 1382.67 511.6 1388.53 526.667 1395.33C541.733 1402.13 563.067 1411.6 574 1416.4C591.067 1423.73 641.733 1446.27 665.067 1456.8L672 1460V1476.4V1492.93L666.533 1497.33C648 1512.13 654.933 1541.73 677.867 1546.4C691.2 1549.07 704.4 1542.93 710 1531.33C715.867 1518.8 710.4 1501.47 698.267 1495.07C696.267 1494.13 695.867 1491.33 695.2 1476.53L694.533 1459.07L712.933 1450.8C729.467 1443.2 810.533 1407.07 854.933 1387.47C864.267 1383.33 872.133 1380 872.533 1380C872.933 1380 873.467 1401.2 873.6 1427.07L874 1474.27L877.6 1478.93C884.133 1487.47 888 1488.13 928.133 1487.73L963.6 1487.33L969.2 1483.6C972.933 1481.07 975.733 1477.73 977.467 1474C980 1468.4 980 1464.53 979.733 1367.6L979.333 1267.07L975.6 1262.27C968.533 1252.93 967.6 1252.67 927.333 1252.4C905.067 1252.13 890 1252.67 888 1253.47ZM812 1380.93C812 1381.6 783.333 1396.27 748.267 1413.73L684.667 1445.47L664.667 1436.27C636.267 1423.2 565.867 1389.73 558 1385.47L551.333 1382L680.667 1381.33C751.867 1380.93 810.4 1380.53 811.067 1380.27C811.6 1380.13 812 1380.4 812 1380.93Z" fill="#33DD00"/>
</svg>
