<svg width="1366" height="2048" viewBox="0 0 1366 2048" fill="none" xmlns="http://www.w3.org/2000/svg">
<path d="M552.267 420.4C544.933 423.067 538.533 429.333 534.933 437.2C531.867 443.867 531.333 446.667 530.933 462.933L530.4 481.333H518.8C498.533 481.333 485.6 487.733 478 501.467L474 508.667L473.6 580.933C473.2 661.733 473.333 663.333 482.267 680.267C491.6 698 507.867 710.4 523.6 711.733C531.867 712.4 532 712.533 532 732C532 743.867 532.533 747.067 535.2 752.667C538.667 760.4 545.867 767.2 554.533 771.2C560.4 773.867 563.067 774 611.733 774.4L662.667 774.8V882.8V990.667H645.067C624.4 990.667 619.333 992.267 611.867 1001.2C604.4 1009.73 604 1012.67 604 1057.6V1098.13L607.333 1104.93C614.133 1118.4 623.6 1122.67 646.8 1122.67H662.667V1203.33V1284H636.267C616.667 1284 608.133 1284.53 603.067 1286C594.4 1288.53 584.533 1297.33 580.533 1306C577.467 1312.4 577.333 1313.87 577.333 1344.93C577.333 1380.8 578.267 1377.47 567.333 1379.33C556.133 1381.2 544.667 1390.27 539.467 1401.33C536.667 1407.33 536.667 1408.53 536.267 1518C536 1578.8 536.267 1630.53 536.667 1632.93C538.133 1641.33 540.8 1642.93 555.467 1644.13C564.667 1644.8 571.467 1646.13 578 1648.67C594.667 1655.07 599.733 1656 619.467 1656C637.067 1656 639.333 1655.73 651.467 1651.73C663.467 1648 666.267 1647.6 682.667 1647.47C699.467 1647.33 701.6 1647.6 713.333 1651.47C720.267 1653.87 728.533 1656.13 731.733 1656.67L737.333 1657.6V1706.13V1754.67L728 1747.87C705.733 1731.6 676.267 1728.53 651.333 1740C634.133 1747.87 619.467 1762.27 611.333 1779.33L607.867 1786.67H484H360V1806.67V1826.67H483.067H606.267L607.867 1832.27C612.533 1848 627.467 1867.07 641.733 1875.73C673.733 1895.07 711.333 1890.4 737.333 1864.13C747.333 1854 754.267 1843.07 757.467 1832.27L759.067 1826.67H882.267H1005.33V1806.67V1786.67H892.667H780V1718.93V1651.2L788.667 1648.13C794 1646.27 801.867 1644.8 809.067 1644.4C822.4 1643.6 824.533 1642.67 827.333 1637.33C829.2 1633.73 829.333 1619.87 829.067 1520.27L828.667 1407.33L825.467 1400.93C819.6 1389.2 806.267 1380 792.667 1378.27L788.667 1377.73L788 1343.87C787.333 1312.4 787.067 1309.6 784.4 1304.67C780.533 1297.47 774 1291.47 766 1287.73C759.867 1284.93 757.2 1284.67 730.4 1284.27L701.333 1283.73V1203.2V1122.67H717.867C741.067 1122.67 749.867 1119.07 757.067 1106.67L760.667 1100.67L761.067 1059.33C761.467 1013.33 761.067 1010 753.733 1001.33C746 992.4 743.2 991.467 721.333 990.667L702 990L701.6 882.4L701.333 774.8L752.267 774.4C809.733 773.733 811.333 773.6 821.2 764C830.667 754.8 832.4 749.733 833.333 730L834 712.667L841.867 711.733C853.067 710.267 860.8 706.133 870.667 696.133C879.733 686.933 886.4 675.333 889.6 663.2C890.933 658.267 891.333 638.933 891.333 582.667C891.333 508.933 891.333 508.667 888.4 503.2C883.867 494.667 879.6 490.267 871.733 486C865.333 482.4 863.2 482 849.733 481.6L834.667 481.067V468C834.667 441.2 828.8 428 814 421.2C808.933 418.8 802 418.667 682.667 418.8C589.2 418.8 555.6 419.333 552.267 420.4ZM797.333 468.933V482.667H682.667H568V468.933V455.333H682.667L797.333 455.2V468.933ZM797.333 716.667C797.333 733.733 797.067 736.133 795.067 736.933C792 738.133 573.333 738.133 570.4 736.933C568.267 736.133 568 733.867 568 716.667V697.333H682.667H797.333V716.667ZM725.333 1056V1085.33H682.667H640V1056V1026.67H682.667H725.333V1056ZM751.333 1350V1378H682.667H614L613.6 1351.33C613.467 1336.67 613.6 1324 614 1323.07C614.4 1321.6 628.133 1321.33 682.933 1321.6L751.333 1322V1350ZM756.933 1472.67C761.2 1476.93 761.6 1478 760.933 1482.93C760.533 1486.4 758.933 1489.73 756.8 1491.87L753.333 1495.33L684.267 1495.73C634 1496 614.4 1495.6 611.6 1494.53C604.933 1491.73 602 1481.73 605.867 1474.8C609.6 1468 609.067 1468.13 683.067 1468H752.267L756.933 1472.67ZM753.733 1534.53C763.067 1539.33 763.6 1552.4 754.8 1558.27C751.6 1560.4 745.733 1560.53 693.467 1560.8C661.6 1561.07 630.133 1560.8 623.467 1560.4C612.533 1559.6 610.933 1559.2 607.733 1555.87C600.667 1548.8 604 1536.27 613.733 1533.47C616.267 1532.67 645.867 1532.27 684 1532.4C738.533 1532.67 750.667 1533.07 753.733 1534.53ZM698 1776.53C721.467 1787.47 727.467 1817.2 709.867 1835.47C695.2 1850.53 673.333 1851.87 658.133 1838.53C640.667 1823.07 640.533 1797.73 658 1782.27C668.133 1773.2 685.6 1770.67 698 1776.53Z" fill="#E81919"/>
</svg>
