<svg width="1366" height="2048" viewBox="0 0 1366 2048" fill="none" xmlns="http://www.w3.org/2000/svg">
<path d="M454.933 505.467C446.266 509.733 440 516.267 435.333 526C432.8 531.067 432.666 534.933 432.266 596.267C432 637.467 432.4 663.067 433.2 666.267C437.866 683.6 454.8 694.667 476.666 694.667H484.666L485.066 706C486.266 741.067 504.266 769.067 535.333 784.133C561.866 796.933 592.533 796 618.666 781.733C630.666 775.067 648.533 756.8 654.933 744.667C661.6 731.733 665.333 718.667 666.266 704.933L667.066 693.333H784C883.866 693.333 901.866 693.067 907.6 691.333C915.6 688.933 925.6 680.667 929.733 672.8C932.666 667.333 932.666 666.533 933.066 600.267L933.466 533.2L929.866 525.2C925.733 516.133 918.666 509.2 908.8 504.533L902 501.333H682.533H463.066L454.933 505.467ZM887.2 541.733C890.133 543.333 893.733 546.4 895.2 548.4C897.866 552 898 553.867 898.4 600.267C898.8 653.333 898.933 652.133 890.266 657.333C886.133 659.867 882.666 660 771.2 660H656.533L654.4 655.6C650.933 648.4 639.6 635.6 630.666 628.933C613.466 616 596.533 610.4 574 610.533C542.933 610.667 515.333 625.867 499.333 651.733C494.266 660 494.266 660 488 660C479.466 660 472.533 656.8 469.333 651.6C466.8 647.467 466.666 645.2 466.933 599.733C467.333 545.733 467.066 547.6 478.666 541.6L484.533 538.667H683.333H882L887.2 541.733ZM590.533 642.8C600.666 645.067 610.266 650.533 618.4 658.533C626.4 666.4 633.866 679.067 635.466 687.6L636.4 692H575.466C542 692 514.666 691.467 514.666 690.933C514.666 690.267 515.866 686.267 517.333 682C524 662.667 536.8 649.6 554.666 643.867C562.933 641.2 581.2 640.667 590.533 642.8ZM556 742V759.867L550.533 758C542.533 755.067 537.066 751.467 530.933 744.8C526.4 739.867 518.666 727.2 518.666 724.667C518.666 724.267 527.066 724 537.333 724H556V742ZM630.666 725.6C630.666 726.533 628.933 730.267 626.8 734C620.533 744.933 607.466 755.867 596.4 759.2L593.333 760.133V742.133V724H612C626 724 630.666 724.4 630.666 725.6Z" fill="#FF2222"/>
<path d="M711.467 579.333C708 582.533 708 582.8 708 599.867C708 625.2 699.867 622.667 783.6 622.667H852.133L855.333 619.333C858.533 616.267 858.667 615.333 858.667 599.333C858.667 583.333 858.533 582.4 855.333 579.333L852.133 576H783.6H715.067L711.467 579.333Z" fill="#FF2222"/>
<path d="M451.333 825.867C439.466 828.8 431.2 834.267 423.066 844.4C414.933 854.8 414.533 856.4 400.533 959.333C396.133 991.467 394.266 1009.47 394.133 1021.33C394 1037.33 394.133 1038.4 398.133 1046.67C405.333 1061.87 415.2 1070.8 430.533 1076C438.666 1078.67 440.666 1078.8 513.733 1078.4L588.666 1078L597.466 1073.73C610.4 1067.33 617.733 1060.27 623.6 1048.27C628.4 1038.67 628.666 1037.47 628.666 1025.47C628.666 1015.6 627.466 1007.6 623.466 990C620.666 977.467 613.466 944.8 607.2 917.333C601.066 889.867 594.8 863.467 593.2 858.667C588 842.267 575.466 830.133 559.866 826C550.266 823.467 461.6 823.333 451.333 825.867Z" fill="#FF2222"/>
<path d="M804.933 825.467C793.333 828.267 782.933 835.867 776.133 846.533C771.867 853.2 769.2 863.067 757.333 918C754.533 931.2 748.8 957.333 744.667 976C740.533 994.667 736.8 1014.27 736.4 1019.47C734.533 1042.8 746.533 1063.73 767.6 1073.73L776.667 1078H853.333H930L940 1073.2C952.8 1067.07 961.6 1058.53 967.067 1046.93C971.2 1038.4 971.333 1037.33 971.2 1022C971.067 1006.4 966.667 970.4 955.333 891.467C951.733 866.533 950 858 947.467 852.667C942 841.733 935.6 835.333 924.4 829.733L914.133 824.667L862.133 824.4C833.467 824.267 807.733 824.8 804.933 825.467Z" fill="#FF2222"/>
<path d="M458.667 1208.53C434.8 1215.33 414.8 1235.33 407.067 1260.67C404.8 1268 404.667 1274.8 404.667 1350.67V1432.67L407.733 1441.6C415.467 1464.13 433.2 1481.87 456.667 1490.53L466 1494L675.333 1494.4C832.4 1494.8 887.467 1494.4 895.867 1493.2C911.867 1490.93 925.733 1483.73 938.133 1471.47C948.133 1461.47 953.067 1453.6 957.733 1440.67C960.667 1432.8 960.667 1431.6 960.667 1351.33C960.667 1276.13 960.533 1269.33 958.267 1262C954.933 1251.2 947.467 1237.2 941.067 1230C933.867 1221.87 919.733 1212.8 908.8 1209.47C900 1206.8 897.2 1206.67 821.467 1206.67C753.733 1206.67 742.133 1206.93 735.867 1208.8C711.867 1215.87 693.067 1234.93 686 1259.33C684.667 1263.73 683.333 1268.27 683.067 1269.33C682.667 1270.4 681.467 1267.87 680.533 1263.6C676.267 1245.6 664.4 1228.93 648.267 1218.27C631.067 1206.8 636.4 1207.33 545.333 1207.07C483.733 1206.93 463.2 1207.2 458.667 1208.53Z" fill="#FF2222"/>
</svg>
