<svg width="709" height="1297" viewBox="0 0 709 1297" fill="none" xmlns="http://www.w3.org/2000/svg">
<path d="M218 216C207.507 216 199 208.28 199 198.756V17.2437C199 7.72027 207.507 0 218 0C228.493 0 237 7.72027 237 17.2437V198.756C237 208.28 228.493 216 218 216Z" fill="#C50000"/>
<path d="M498 216C487.507 216 479 208.28 479 198.756V17.2437C479 7.72027 487.507 0 498 0C508.493 0 517 7.72027 517 17.2437V198.756C517 208.28 508.493 216 498 216Z" fill="#C50000"/>
<path d="M199 198.756C199 189.233 207.507 181.513 218 181.513H498C508.493 181.513 517 189.233 517 198.756C517 208.28 508.493 216 498 216H218C207.507 216 199 208.28 199 198.756Z" fill="#C50000"/>
<path d="M199 17.2437C199 7.72027 207.507 0 218 0H498C508.493 0 517 7.72027 517 17.2437C517 26.7671 508.493 34.4874 498 34.4874H218C207.507 34.4874 199 26.7671 199 17.2437Z" fill="#C50000"/>
<path d="M0 575.5C0 565.283 8.28273 557 18.5 557H115.5C125.717 557 134 565.283 134 575.5C134 585.717 125.717 594 115.5 594H18.5C8.28273 594 0 585.717 0 575.5Z" fill="#C50000"/>
<path d="M0 471.5C0 461.283 8.28273 453 18.5 453H115.5C125.717 453 134 461.283 134 471.5C134 481.717 125.717 490 115.5 490H18.5C8.28273 490 0 481.717 0 471.5Z" fill="#C50000"/>
<path d="M115.5 460.058C125.717 460.026 134.026 468.283 134.058 478.5L134.363 575.499C134.395 585.717 126.139 594.025 115.922 594.057C105.704 594.09 97.3956 585.833 97.3635 575.616L97.0584 478.616C97.0262 468.399 105.283 460.09 115.5 460.058Z" fill="#C50000"/>
<path d="M18.5001 453.058C28.7173 453.026 37.0261 461.283 37.0582 471.5L37.3633 568.499C37.3954 578.717 29.1388 587.025 18.9216 587.057C8.70434 587.09 0.395602 578.833 0.363465 568.616L0.0583711 471.616C0.0262347 461.399 8.28287 453.09 18.5001 453.058Z" fill="#C50000"/>
<path d="M0 980.5C0 970.283 8.28273 962 18.5 962H115.5C125.717 962 134 970.283 134 980.5C134 990.717 125.717 999 115.5 999H18.5C8.28273 999 0 990.717 0 980.5Z" fill="#C50000"/>
<path d="M0 876.5C0 866.283 8.28273 858 18.5 858H115.5C125.717 858 134 866.283 134 876.5C134 886.717 125.717 895 115.5 895H18.5C8.28273 895 0 886.717 0 876.5Z" fill="#C50000"/>
<path d="M115.5 865.058C125.717 865.026 134.026 873.283 134.058 883.5L134.363 980.499C134.395 990.717 126.139 999.025 115.922 999.057C105.704 999.09 97.3956 990.833 97.3635 980.616L97.0584 883.616C97.0262 873.399 105.283 865.09 115.5 865.058Z" fill="#C50000"/>
<path d="M18.5001 858.058C28.7173 858.026 37.0261 866.283 37.0582 876.5L37.3633 973.499C37.3954 983.717 29.1388 992.025 18.9216 992.057C8.70434 992.09 0.395602 983.833 0.363465 973.616L0.0583711 876.616C0.0262347 866.399 8.28287 858.09 18.5001 858.058Z" fill="#C50000"/>
<path d="M574 575.5C574 565.283 582.283 557 592.5 557H689.5C699.717 557 708 565.283 708 575.5C708 585.717 699.717 594 689.5 594H592.5C582.283 594 574 585.717 574 575.5Z" fill="#C50000"/>
<path d="M574 471.5C574 461.283 582.283 453 592.5 453H689.5C699.717 453 708 461.283 708 471.5C708 481.717 699.717 490 689.5 490H592.5C582.283 490 574 481.717 574 471.5Z" fill="#C50000"/>
<path d="M689.5 460.058C699.717 460.026 708.026 468.283 708.058 478.5L708.363 575.499C708.395 585.717 700.139 594.025 689.922 594.057C679.704 594.09 671.396 585.833 671.363 575.616L671.058 478.616C671.026 468.399 679.283 460.09 689.5 460.058Z" fill="#C50000"/>
<path d="M592.5 453.058C602.717 453.026 611.026 461.283 611.058 471.5L611.363 568.499C611.395 578.717 603.139 587.025 592.922 587.057C582.704 587.09 574.396 578.833 574.363 568.616L574.058 471.616C574.026 461.399 582.283 453.09 592.5 453.058Z" fill="#C50000"/>
<path d="M574 980.5C574 970.283 582.283 962 592.5 962H689.5C699.717 962 708 970.283 708 980.5C708 990.717 699.717 999 689.5 999H592.5C582.283 999 574 990.717 574 980.5Z" fill="#C50000"/>
<path d="M574 876.5C574 866.283 582.283 858 592.5 858H689.5C699.717 858 708 866.283 708 876.5C708 886.717 699.717 895 689.5 895H592.5C582.283 895 574 886.717 574 876.5Z" fill="#C50000"/>
<path d="M689.5 865.058C699.717 865.026 708.026 873.283 708.058 883.5L708.363 980.499C708.395 990.717 700.139 999.025 689.922 999.057C679.704 999.09 671.396 990.833 671.363 980.616L671.058 883.616C671.026 873.399 679.283 865.09 689.5 865.058Z" fill="#C50000"/>
<path d="M592.5 858.058C602.717 858.026 611.026 866.283 611.058 876.5L611.363 973.499C611.395 983.717 603.139 992.025 592.922 992.057C582.704 992.09 574.396 983.833 574.363 973.616L574.058 876.616C574.026 866.399 582.283 858.09 592.5 858.058Z" fill="#C50000"/>
<path d="M574 980.5C574 970.283 582.283 962 592.5 962H689.5C699.717 962 708 970.283 708 980.5C708 990.717 699.717 999 689.5 999H592.5C582.283 999 574 990.717 574 980.5Z" fill="#C50000"/>
<path d="M574 876.5C574 866.283 582.283 858 592.5 858H689.5C699.717 858 708 866.283 708 876.5C708 886.717 699.717 895 689.5 895H592.5C582.283 895 574 886.717 574 876.5Z" fill="#C50000"/>
<path d="M689.5 865.058C699.717 865.026 708.026 873.283 708.058 883.5L708.363 980.499C708.395 990.717 700.139 999.025 689.922 999.057C679.704 999.09 671.396 990.833 671.363 980.616L671.058 883.616C671.026 873.399 679.283 865.09 689.5 865.058Z" fill="#C50000"/>
<path d="M592.5 858.058C602.717 858.026 611.026 866.283 611.058 876.5L611.363 973.499C611.395 983.717 603.139 992.025 592.922 992.057C582.704 992.09 574.396 983.833 574.363 973.616L574.058 876.616C574.026 866.399 582.283 858.09 592.5 858.058Z" fill="#C50000"/>
<path d="M574 1277.5C574 1267.28 582.283 1259 592.5 1259H689.5C699.717 1259 708 1267.28 708 1277.5C708 1287.72 699.717 1296 689.5 1296H592.5C582.283 1296 574 1287.72 574 1277.5Z" fill="#C50000"/>
<path d="M574 1173.5C574 1163.28 582.283 1155 592.5 1155H689.5C699.717 1155 708 1163.28 708 1173.5C708 1183.72 699.717 1192 689.5 1192H592.5C582.283 1192 574 1183.72 574 1173.5Z" fill="#C50000"/>
<path d="M689.5 1162.06C699.717 1162.03 708.026 1170.28 708.058 1180.5L708.363 1277.5C708.395 1287.72 700.139 1296.03 689.922 1296.06C679.704 1296.09 671.396 1287.83 671.363 1277.62L671.058 1180.62C671.026 1170.4 679.283 1162.09 689.5 1162.06Z" fill="#C50000"/>
<path d="M592.5 1155.06C602.717 1155.03 611.026 1163.28 611.058 1173.5L611.363 1270.5C611.395 1280.72 603.139 1289.03 592.922 1289.06C582.704 1289.09 574.396 1280.83 574.363 1270.62L574.058 1173.62C574.026 1163.4 582.283 1155.09 592.5 1155.06Z" fill="#C50000"/>
<path d="M0 1277.5C0 1267.28 8.28273 1259 18.5 1259H115.5C125.717 1259 134 1267.28 134 1277.5C134 1287.72 125.717 1296 115.5 1296H18.5C8.28273 1296 0 1287.72 0 1277.5Z" fill="#C50000"/>
<path d="M0 1173.5C0 1163.28 8.28273 1155 18.5 1155H115.5C125.717 1155 134 1163.28 134 1173.5C134 1183.72 125.717 1192 115.5 1192H18.5C8.28273 1192 0 1183.72 0 1173.5Z" fill="#C50000"/>
<path d="M115.5 1162.06C125.717 1162.03 134.026 1170.28 134.058 1180.5L134.363 1277.5C134.395 1287.72 126.139 1296.03 115.922 1296.06C105.704 1296.09 97.3956 1287.83 97.3635 1277.62L97.0584 1180.62C97.0262 1170.4 105.283 1162.09 115.5 1162.06Z" fill="#C50000"/>
<path d="M18.5001 1155.06C28.7173 1155.03 37.0261 1163.28 37.0582 1173.5L37.3633 1270.5C37.3954 1280.72 29.1388 1289.03 18.9216 1289.06C8.70434 1289.09 0.395602 1280.83 0.363465 1270.62L0.0583711 1173.62C0.0262347 1163.4 8.28287 1155.09 18.5001 1155.06Z" fill="#C50000"/>
<path d="M134 506H574V541H134V506Z" fill="#C50000"/>
<path d="M134 911H574V946H134V911Z" fill="#C50000"/>
<path d="M134 1208H574V1243H134V1208Z" fill="#C50000"/>
<path d="M336 521V203H371V521H336Z" fill="#C50000"/>
<path d="M340 1243V929H375V1243H340Z" fill="#C50000"/>
<path d="M49 885V567H84V885H49Z" fill="#C50000"/>
<path d="M623 885V567H658V885H623Z" fill="#C50000"/>
<path d="M298 74.0435C298 68.5206 302.477 64.0435 308 64.0435C313.523 64.0435 318 68.5206 318 74.0435V144.043C318 149.566 313.523 154.043 308 154.043C302.477 154.043 298 149.566 298 144.043V74.0435Z" fill="#C50000"/>
<path d="M309.434 154.015C303.912 153.986 299.458 149.486 299.486 143.964C299.514 138.441 304.014 133.987 309.537 134.015L405.293 134.506C410.816 134.535 415.27 139.035 415.242 144.558C415.213 150.08 410.713 154.534 405.19 154.506L309.434 154.015Z" fill="#C50000"/>
<path d="M424 116.123L424.072 102.043L461.309 102.235L461.237 116.315L424 116.123Z" fill="#C50000"/>
<path d="M424 141.123L424.072 127.043L461.309 127.235L461.237 141.314L424 141.123Z" fill="#C50000"/>
<path d="M424 91.1234L424.072 77.0435L461.309 77.2346L461.237 91.3145L424 91.1234Z" fill="#C50000"/>
<path d="M254 116.123L254.072 102.043L291.309 102.235L291.237 116.315L254 116.123Z" fill="#C50000"/>
<path d="M254 141.123L254.072 127.043L291.309 127.235L291.237 141.314L254 141.123Z" fill="#C50000"/>
<path d="M254 91.1234L254.072 77.0435L291.309 77.2346L291.237 91.3145L254 91.1234Z" fill="#C50000"/>
<path d="M308.536 84.0511C303.013 84.0227 298.559 79.5227 298.587 73.9999C298.616 68.4771 303.116 64.023 308.639 64.0513L406.876 64.5555C412.399 64.5838 416.853 69.0839 416.824 74.6067C416.796 80.1294 412.296 84.5835 406.773 84.5552L308.536 84.0511Z" fill="#C50000"/>
<path d="M397 75.0435C397 69.5206 401.477 65.0435 407 65.0435C412.523 65.0435 417 69.5206 417 75.0435V144.043C417 149.566 412.523 154.043 407 154.043C401.477 154.043 397 149.566 397 144.043V75.0435Z" fill="#C50000"/>
</svg>
