<?xml version="1.0" standalone="no"?>
<!DOCTYPE svg PUBLIC "-//W3C//DTD SVG 20010904//EN"
 "http://www.w3.org/TR/2001/REC-SVG-20010904/DTD/svg10.dtd">
<svg version="1.0" xmlns="http://www.w3.org/2000/svg"
 width="1024.000000pt" height="1536.000000pt" viewBox="0 0 1024.000000 1536.000000"
 preserveAspectRatio="xMidYMid meet">

<g transform="translate(0.000000,1536.000000) scale(0.100000,-0.100000)"
fill="#000000" stroke="none">
<path d="M4750 12523 c-262 -11 -580 -39 -780 -69 -512 -74 -780 -188 -1010
-431 -86 -89 -130 -153 -190 -272 -154 -307 -219 -748 -207 -1391 6 -321 22
-452 83 -699 36 -147 57 -283 68 -443 l6 -86 -218 -145 c-119 -79 -223 -151
-230 -159 -16 -20 -26 -98 -18 -143 16 -86 72 -95 197 -34 46 23 126 61 177
85 l93 43 -6 -572 c-4 -315 -11 -968 -15 -1452 -9 -943 -9 -926 -69 -1330 -45
-300 -54 -449 -48 -785 13 -615 90 -1076 232 -1375 110 -231 305 -428 522
-527 179 -81 694 -169 1228 -210 220 -17 956 -17 1165 0 575 47 1011 128 1205
225 202 101 403 308 497 514 118 260 184 613 219 1168 16 266 7 678 -21 855
-84 547 -80 473 -90 1735 -4 622 -11 1269 -15 1439 -4 173 -3 306 1 303 49
-29 365 -167 383 -167 21 1 45 20 60 48 16 31 18 141 3 169 -6 12 -109 86
-228 165 l-217 143 7 129 c8 159 18 230 63 421 59 257 74 380 80 685 17 801
-92 1311 -342 1603 -239 279 -471 393 -966 476 -203 35 -508 67 -769 81 -165
9 -676 11 -850 3z m880 -113 c353 -20 705 -60 726 -83 6 -6 60 -75 120 -152
219 -282 293 -342 608 -498 213 -104 391 -208 405 -236 14 -26 49 -214 66
-351 8 -69 21 -248 27 -397 18 -419 -3 -706 -76 -1018 -60 -261 -61 -280 -59
-1205 1 -465 5 -967 8 -1116 l7 -270 -59 -31 c-64 -34 -408 -193 -417 -193
-18 0 1 609 29 945 31 373 70 607 170 1034 36 150 65 288 65 306 0 56 -53 75
-64 23 -3 -13 -28 -122 -56 -243 -148 -641 -177 -827 -212 -1345 -16 -249 -16
-1039 0 -1245 34 -430 85 -808 142 -1049 22 -96 32 -116 60 -116 39 0 41 23
16 131 -72 306 -130 812 -152 1319 l-7 155 39 14 c21 8 130 55 241 106 l201
92 5 -556 c5 -585 6 -597 62 -1001 48 -338 59 -502 51 -770 -25 -908 -152
-1383 -444 -1662 -85 -80 -149 -131 -139 -107 95 219 122 288 157 403 48 159
49 191 6 191 -30 0 -30 -1 -88 -175 -65 -195 -157 -393 -213 -458 -20 -23 -53
-49 -74 -58 -169 -71 -569 -137 -1026 -170 -266 -19 -845 -22 -1125 -5 -458
28 -1017 111 -1164 174 -33 14 -61 37 -88 71 -58 73 -138 247 -204 441 -31 94
-63 175 -71 181 -17 14 -50 7 -57 -12 -11 -30 91 -335 164 -491 33 -70 43
-100 32 -94 -51 28 -160 132 -220 210 -221 286 -323 697 -354 1424 -14 334 -4
553 42 877 64 453 79 702 80 1307 l0 281 188 -87 c103 -49 208 -97 234 -107
56 -22 53 2 38 -274 -31 -572 -73 -923 -146 -1218 -15 -56 -23 -109 -20 -117
7 -18 50 -20 64 -2 14 18 67 257 96 437 76 470 110 1139 87 1715 -26 659 -62
901 -255 1739 -14 60 -30 114 -36 120 -16 16 -44 -6 -48 -38 -2 -15 20 -127
48 -249 120 -519 168 -833 200 -1302 14 -206 25 -745 15 -745 -12 0 -335 154
-400 192 l-60 34 4 1049 c4 1222 3 1239 -75 1575 -60 261 -68 353 -68 760 -1
426 20 661 77 894 21 85 24 91 67 123 40 29 222 123 491 252 48 22 113 61 146
85 90 68 228 217 345 372 92 122 111 142 140 147 79 15 407 47 568 57 96 6
195 12 220 13 117 8 755 6 920 -3z m-1885 -117 c-42 -65 -148 -194 -221 -267
-119 -120 -207 -179 -386 -262 -89 -41 -199 -95 -245 -120 -46 -25 -86 -44
-88 -42 -1 1 15 40 36 86 119 257 324 442 609 549 62 24 270 81 299 82 10 1 9
-5 -4 -26z m2860 3 c319 -78 540 -217 700 -441 42 -58 142 -252 133 -259 -1
-2 -44 20 -95 48 -50 29 -149 79 -220 111 -234 107 -372 216 -540 425 -97 120
-110 140 -91 140 7 0 58 -11 113 -24z m-3885 -3347 l0 -81 -185 -89 c-102 -49
-187 -89 -190 -89 -4 0 -5 21 -3 48 l3 47 180 122 c99 67 183 122 188 122 4 1
7 -35 7 -80z m4990 -42 c91 -60 173 -116 183 -124 11 -11 17 -31 17 -60 0 -23
-2 -43 -4 -43 -2 0 -89 40 -192 88 l-189 88 -3 88 c-2 69 0 86 10 80 7 -4 87
-57 178 -117z"/>
<path d="M3688 11753 c-78 -90 -326 -1142 -423 -1787 -16 -109 -10 -136 30
-136 28 0 45 26 45 69 0 49 75 481 131 756 62 304 177 768 225 908 62 182 61
177 39 193 -24 18 -29 18 -47 -3z"/>
<path d="M6499 11754 c-14 -17 -15 -14 50 -206 97 -285 254 -1005 343 -1566
21 -133 24 -143 46 -149 15 -3 29 0 39 10 19 19 17 32 -58 447 -102 559 -199
980 -295 1270 -70 210 -88 238 -125 194z"/>
<path d="M4885 9999 c-422 -17 -929 -114 -1300 -247 -301 -108 -431 -202 -449
-325 -8 -51 6 -102 120 -457 222 -685 337 -880 506 -857 24 3 111 15 193 26
552 74 1311 90 1944 41 191 -15 481 -47 553 -62 142 -29 230 59 352 354 111
270 296 858 296 943 0 63 -31 112 -112 175 -187 149 -728 308 -1288 381 -123
16 -581 43 -625 37 -5 -1 -91 -5 -190 -9z m567 -89 c373 -25 796 -104 1127
-211 281 -91 451 -200 451 -290 0 -14 -27 -115 -60 -225 -33 -109 -60 -203
-60 -207 0 -24 -180 -498 -224 -593 -54 -113 -106 -179 -150 -190 -13 -3 -79
4 -147 15 -352 58 -656 76 -1269 76 -612 0 -921 -19 -1264 -76 -93 -15 -127
-17 -152 -9 -107 36 -216 275 -415 907 -52 166 -79 269 -79 300 0 43 4 51 49
94 168 162 805 343 1401 399 220 20 569 25 792 10z"/>
<path d="M3733 5420 c-41 -13 -70 -73 -118 -240 -79 -279 -143 -630 -166 -904
-14 -169 -9 -238 17 -267 69 -76 413 -183 799 -248 431 -72 964 -85 1475 -36
465 45 927 173 1035 285 25 26 27 34 27 109 -2 299 -166 1120 -252 1259 -32
52 -52 55 -229 32 -265 -34 -470 -49 -835 -61 -471 -16 -921 1 -1461 56 -228
23 -258 25 -292 15z m297 -100 c444 -47 606 -54 1125 -54 524 -1 754 11 1105
55 211 26 216 25 235 -10 68 -133 218 -890 227 -1147 3 -91 -11 -113 -94 -152
-202 -95 -557 -176 -928 -212 -181 -18 -770 -24 -964 -11 -497 34 -1092 165
-1188 262 -24 23 -28 36 -28 82 0 300 171 1157 238 1197 24 14 65 12 272 -10z"/>
<path d="M3437 3703 c-12 -12 -7 -75 17 -233 49 -308 110 -566 138 -584 25
-15 53 4 52 35 0 13 -17 96 -37 184 -20 88 -53 257 -73 375 -20 118 -41 218
-48 222 -14 10 -41 10 -49 1z"/>
<path d="M6742 3693 c-5 -10 -15 -65 -22 -123 -14 -126 -37 -256 -86 -488 -34
-162 -36 -175 -20 -190 43 -43 69 21 126 307 49 244 78 466 63 489 -14 24 -50
27 -61 5z"/>
</g>
</svg>
